<svg xmlns="http://www.w3.org/2000/svg" viewBox="0 0 1265 824"><defs><style>.cls-1{fill:#fff;stroke:#fff;}.cls-2,.cls-6{fill:none;}.cls-2,.cls-4{stroke:#000;}.cls-3{isolation:isolate;font-size:12px;font-family:ArialMT, Arial;}.cls-5{letter-spacing:-0.06em;}.cls-6{stroke:#339;}</style></defs><title>catalogAsset 1</title><g id="Layer_2" data-name="Layer 2"><g id="Layer_1-2" data-name="Layer 1"><rect class="cls-1" x="384.5" y="0.5" width="242" height="196"/><rect class="cls-2" x="384.5" y="0.5" width="242" height="196"/><text class="cls-3" transform="translate(481.5 14.5)">Utilizator</text><rect class="cls-4" x="384.5" y="24.5" width="242" height="1"/><text class="cls-3" transform="translate(388.5 39.5)">#username : String</text><text class="cls-3" transform="translate(388.5 56.5)">#Nume : String</text><rect class="cls-4" x="384.5" y="92.5" width="242" height="1"/><text class="cls-3" transform="translate(388.5 107.5)">+logIn(username : String,parola : String)</text><text class="cls-3" transform="translate(388.5 124.5)">+logOut()</text><text class="cls-3" transform="translate(388.5 141.5)">+schimbaParola(parolaNoua : String)</text><text class="cls-3" transform="translate(388.5 158.5)">+vizualizareNote()</text><rect class="cls-1" x="104.5" y="296.5" width="310" height="152"/><rect class="cls-2" x="104.5" y="296.5" width="310" height="152"/><text class="cls-3" transform="translate(238.5 310.5)">Student</text><rect class="cls-4" x="104.5" y="320.5" width="310" height="1"/><text class="cls-3" transform="translate(108.5 335.5)">-nrMatricol : String</text><rect class="cls-4" x="104.5" y="383.5" width="310" height="1"/><text class="cls-3" transform="translate(108.5 398.5)">+contestaNota(lab : Laborato<tspan class="cls-5" x="155.1" y="0">r</tspan><tspan x="158.44" y="0">,prof : Profeso</tspan><tspan class="cls-5" x="233.81" y="0">r</tspan><tspan x="237.14" y="0">,nota : Nota)</tspan></text><line class="cls-6" x1="413.5" y1="296.5" x2="413.5" y2="195.5"/><polygon class="cls-1" points="413.5 195.5 420.5 207.5 406.5 207.5 413.5 195.5"/><polygon class="cls-6" points="413.5 195.5 420.5 207.5 406.5 207.5 413.5 195.5"/><rect class="cls-1" x="448.5" y="288.5" width="320" height="192"/><rect class="cls-2" x="448.5" y="288.5" width="320" height="192"/><text class="cls-3" transform="translate(584.5 302.5)">Profesor</text><rect class="cls-4" x="448.5" y="312.5" width="320" height="1"/><text class="cls-3" transform="translate(452.5 327.5)">-nrOre : int</text><rect class="cls-4" x="448.5" y="378.5" width="320" height="1"/><text class="cls-3" transform="translate(452.5 393.5)">+adaugaNota(lab : Laborato<tspan class="cls-5" x="149.78" y="0">r</tspan><tspan x="153.12" y="0">,nota : Nota,student : Student)</tspan></text><text class="cls-3" transform="translate(452.5 410.5)">+stergeNota(lab : Laborato<tspan class="cls-5" x="143.09" y="0">r</tspan><tspan x="146.43" y="0">,nota : Nota,student : Student)</tspan></text><text class="cls-3" transform="translate(452.5 427.5)">+verificaSituatia(lab : Laborator)</text><line class="cls-6" x1="496.5" y1="288.5" x2="496.5" y2="195.5"/><polygon class="cls-1" points="496.5 195.5 503.5 207.5 489.5 207.5 496.5 195.5"/><polygon class="cls-6" points="496.5 195.5 503.5 207.5 489.5 207.5 496.5 195.5"/><rect class="cls-1" x="904.5" y="248.5" width="360" height="304"/><rect class="cls-2" x="904.5" y="248.5" width="360" height="304"/><text class="cls-3" transform="translate(1054.5 262.5)">Secretariat</text><rect class="cls-4" x="904.5" y="272.5" width="360" height="1"/><rect class="cls-4" x="904.5" y="358.5" width="360" height="1"/><text class="cls-3" transform="translate(908.5 373.5)">+inregistreazaStudent(student : Student)</text><text class="cls-3" transform="translate(908.5 390.5)">+creeazaGrupa(grupa : Grupa)</text><text class="cls-3" transform="translate(908.5 407.5)">+adaugaStudentInGrupa(student : Student,grupa : Grupa)</text><text class="cls-3" transform="translate(908.5 424.5)">+creeazaLaborator(laborator : Laborator)</text><text class="cls-3" transform="translate(908.5 441.5)">+adaugaGrupaLaLaborator(grupa : Grupa,lab : Laborator)</text><text class="cls-3" transform="translate(908.5 458.5)">+adaugaProfesorLaLaborator(prof : Profeso<tspan class="cls-5" x="233.15" y="0">r</tspan><tspan x="236.48" y="0">,lab : Laborator)</tspan></text><text class="cls-3" transform="translate(908.5 475.5)">+exmatriculeazaStudent(student : Student)</text><line class="cls-6" x1="904.5" y1="248.5" x2="625.5" y2="195.5"/><polygon class="cls-1" points="625.5 195.5 638.5 190.5 635.5 204.5 625.5 195.5"/><polygon class="cls-6" points="625.5 195.5 638.5 190.5 635.5 204.5 625.5 195.5"/><rect class="cls-1" x="648.5" y="640.5" width="271" height="183"/><rect class="cls-2" x="648.5" y="640.5" width="271" height="183"/><text class="cls-3" transform="translate(757.5 654.5)">Laborator</text><rect class="cls-4" x="648.5" y="664.5" width="271" height="1"/><text class="cls-3" transform="translate(652.5 679.5)">-ora : String</text><rect class="cls-4" x="648.5" y="745.5" width="271" height="1"/><line class="cls-2" x1="736.5" y1="479.5" x2="736.5" y2="640.5"/><polygon class="cls-4" points="736.5 479.5 741.5 489.5 736.5 499.5 731.5 489.5 736.5 479.5"/><polygon class="cls-2" points="736.5 479.5 741.5 489.5 736.5 499.5 731.5 489.5 736.5 479.5"/><text class="cls-3" transform="translate(744.5 623.5)">0..*</text><rect class="cls-1" x="0.5" y="680.5" width="162" height="131"/><rect class="cls-2" x="0.5" y="680.5" width="162" height="131"/><text class="cls-3" transform="translate(64.5 694.5)">Grupa</text><rect class="cls-4" x="0.5" y="704.5" width="162" height="1"/><text class="cls-3" transform="translate(4.5 719.5)">-nume : String</text><text class="cls-3" transform="translate(4.5 736.5)">-an : int</text><text class="cls-3" transform="translate(4.5 753.5)">-nrStudenti : int</text><rect class="cls-4" x="0.5" y="776.5" width="162" height="1"/><line class="cls-6" x1="648.5" y1="752.5" x2="161.5" y2="752.5"/><text class="cls-3" transform="translate(361.5 732.5)">participa</text><text class="cls-3" transform="translate(629.5 747.5)">6</text><text class="cls-3" transform="translate(167.5 747.5)">1..*</text><line class="cls-2" x1="104.5" y1="680.5" x2="104.5" y2="447.5"/><polygon class="cls-4" points="104.5 680.5 99.5 670.5 104.5 660.5 109.5 670.5 104.5 680.5"/><polygon class="cls-2" points="104.5 680.5 99.5 670.5 104.5 660.5 109.5 670.5 104.5 680.5"/><text class="cls-3" transform="translate(13.5 569.5)">apartine</text><text class="cls-3" transform="translate(106.5 467.5)">20..30</text><rect class="cls-1" x="256.5" y="552.5" width="256" height="152"/><rect class="cls-2" x="256.5" y="552.5" width="256" height="152"/><text class="cls-3" transform="translate(371.5 566.5)">Nota</text><rect class="cls-4" x="256.5" y="576.5" width="256" height="1"/><text class="cls-3" transform="translate(260.5 591.5)">-valoare : int</text><text class="cls-3" transform="translate(260.5 608.5)">-dataNotare : String</text><rect class="cls-4" x="256.5" y="650.5" width="256" height="1"/><line class="cls-2" x1="272.5" y1="447.5" x2="272.5" y2="552.5"/><polygon class="cls-4" points="272.5 447.5 277.5 457.5 272.5 467.5 267.5 457.5 272.5 447.5"/><polygon class="cls-2" points="272.5 447.5 277.5 457.5 272.5 467.5 267.5 457.5 272.5 447.5"/><text class="cls-3" transform="translate(280.5 535.5)">0..*</text><line class="cls-2" x1="472.5" y1="479.5" x2="472.5" y2="552.5"/><polygon class="cls-4" points="472.5 479.5 477.5 489.5 472.5 499.5 467.5 489.5 472.5 479.5"/><polygon class="cls-2" points="472.5 479.5 477.5 489.5 472.5 499.5 467.5 489.5 472.5 479.5"/><text class="cls-3" transform="translate(480.5 535.5)">0..*</text><line class="cls-2" x1="648.5" y1="679.5" x2="511.5" y2="679.5"/><polygon class="cls-4" points="648.5 679.5 638.5 684.5 628.5 679.5 638.5 674.5 648.5 679.5"/><polygon class="cls-2" points="648.5 679.5 638.5 684.5 628.5 679.5 638.5 674.5 648.5 679.5"/><text class="cls-3" transform="translate(517.5 674.5)">0..*</text></g></g></svg>